<svg width="64" height="64" viewBox="0 0 64 64" fill="none" xmlns="http://www.w3.org/2000/svg">
  <path d="M44.339 48.207C31.103 48.207 20.375 37.48 20.375 24.244C20.375 20.106 21.425 16.214 23.275 12.82C14.843 16.211 9 24.454 9 34.062C9 46.717 19.283 57 31.938 57C41.545 57 49.789 51.157 53.18 42.725C49.786 44.575 45.894 45.625 41.756 45.625C42.638 46.484 43.504 47.346 44.339 48.207Z" stroke="#FFFFFF" stroke-width="4" stroke-linejoin="round"/>
  <path d="M44 10L45.719 14.281L50 16L45.719 17.719L44 22L42.281 17.719L38 16L42.281 14.281L44 10Z" fill="#FFFFFF"/>
  <path d="M53 22L54.031 24.969L57 26L54.031 27.031L53 30L51.969 27.031L49 26L51.969 24.969L53 22Z" fill="#FFFFFF"/>
</svg>
