<svg width="178" height="178" viewBox="0 0 178 178" fill="none" xmlns="http://www.w3.org/2000/svg">
<circle cx="89" cy="89" r="89" fill="#AAAAAA"/>
<path d="M67.5752 53H67.5771C71.1177 52.998 74.6072 53.8512 77.75 55.4873C80.8928 57.1235 83.5974 59.4947 85.6338 62.4014C86.2884 63.3357 87.3572 63.8929 88.498 63.8936C89.639 63.8942 90.7086 63.338 91.3643 62.4043C95.3648 56.7076 101.966 53.0001 109.425 53C121.608 53 131.5 62.9034 131.5 75.1367C131.5 86.6137 124.679 98.0092 115.363 107.439C106.526 116.385 95.9785 123.01 88.5 125.786C81.0215 123.01 70.4736 116.385 61.6367 107.439C52.3212 98.0092 45.5001 86.6137 45.5 75.1367C45.5 62.9034 55.3917 53 67.5752 53Z" stroke="white" stroke-width="7" stroke-linecap="round" stroke-linejoin="round"/>
</svg>
