<svg width="90" height="90" viewBox="0 0 90 90" fill="none" xmlns="http://www.w3.org/2000/svg">
<circle cx="45" cy="45" r="45" fill="#AAAAAA"/>
<path d="M60.3237 31.6232C60.84 31.6232 61.3353 31.8284 61.7004 32.1935C62.0655 32.5586 62.2707 33.0539 62.2707 33.5702C62.2707 34.0866 62.0655 34.5818 61.7004 34.947C61.3353 35.3121 60.84 35.5172 60.3237 35.5172H58.3766L58.3708 35.6555L56.5543 61.1047C56.4843 62.0871 56.0447 63.0066 55.324 63.6778C54.6032 64.3491 53.6549 64.7223 52.67 64.7222H36.8233C35.8384 64.7223 34.8901 64.3491 34.1693 63.6778C33.4486 63.0066 33.009 62.0871 32.9391 61.1047L31.1225 35.6574L31.1186 35.5172H29.1716C28.6552 35.5172 28.16 35.3121 27.7949 34.947C27.4297 34.5818 27.2246 34.0866 27.2246 33.5702C27.2246 33.0539 27.4297 32.5586 27.7949 32.1935C28.16 31.8284 28.6552 31.6232 29.1716 31.6232H60.3237ZM54.4768 35.5172H35.0185L36.8253 60.8282H52.67L54.4768 35.5172ZM48.6416 25.7822C49.158 25.7822 49.6532 25.9874 50.0184 26.3525C50.3835 26.7176 50.5886 27.2129 50.5886 27.7292C50.5886 28.2456 50.3835 28.7408 50.0184 29.106C49.6532 29.4711 49.158 29.6762 48.6416 29.6762H40.8536C40.3372 29.6762 39.842 29.4711 39.4769 29.106C39.1118 28.7408 38.9066 28.2456 38.9066 27.7292C38.9066 27.2129 39.1118 26.7176 39.4769 26.3525C39.842 25.9874 40.3372 25.7822 40.8536 25.7822H48.6416Z" fill="white"/>
</svg>
