<svg width="178" height="178" viewBox="0 0 178 178" fill="none" xmlns="http://www.w3.org/2000/svg">
<circle cx="89" cy="89" r="89" fill="#AAAAAA"/>
<path d="M119.306 62.5444C120.328 62.5444 121.307 62.9501 122.029 63.6722C122.751 64.3944 123.157 65.3738 123.157 66.3951C123.157 67.4164 122.751 68.3959 122.029 69.118C121.307 69.8402 120.328 70.2459 119.306 70.2459H115.456L115.444 70.5193L111.851 120.852C111.713 122.795 110.844 124.614 109.418 125.941C107.993 127.269 106.117 128.007 104.169 128.007H72.8279C70.88 128.007 69.0044 127.269 67.5789 125.941C66.1534 124.614 65.284 122.795 65.1457 120.852L61.5529 70.5231L61.5452 70.2459H57.6945C56.6732 70.2459 55.6938 69.8402 54.9716 69.118C54.2495 68.3959 53.8438 67.4164 53.8438 66.3951C53.8438 65.3738 54.2495 64.3944 54.9716 63.6722C55.6938 62.9501 56.6732 62.5444 57.6945 62.5444H119.306ZM107.743 70.2459H69.2583L72.8317 120.305H104.169L107.743 70.2459ZM96.2019 50.9922C97.2231 50.9922 98.2026 51.3979 98.9248 52.12C99.6469 52.8422 100.053 53.8216 100.053 54.8429C100.053 55.8642 99.6469 56.8437 98.9248 57.5658C98.2026 58.288 97.2231 58.6937 96.2019 58.6937H80.7989C79.7776 58.6937 78.7982 58.288 78.076 57.5658C77.3539 56.8437 76.9482 55.8642 76.9482 54.8429C76.9482 53.8216 77.3539 52.8422 78.076 52.12C78.7982 51.3979 79.7776 50.9922 80.7989 50.9922H96.2019Z" fill="white"/>
</svg>
